<svg width="116" height="30" viewBox="0 0 116 30" fill="none" xmlns="http://www.w3.org/2000/svg">
<path d="M9.68 8.1V9.96H3.78V14.06H8.38V15.92H3.78V22H1.5V8.1H9.68ZM14.273 7.2V22H11.993V7.2H14.273ZM16.7064 16.44C16.7064 15.3333 16.9331 14.3533 17.3864 13.5C17.8531 12.6467 18.4797 11.9867 19.2664 11.52C20.0664 11.04 20.9464 10.8 21.9064 10.8C22.7731 10.8 23.5264 10.9733 24.1664 11.32C24.8197 11.6533 25.3397 12.0733 25.7264 12.58V10.98H28.0264V22H25.7264V20.36C25.3397 20.88 24.8131 21.3133 24.1464 21.66C23.4797 22.0067 22.7197 22.18 21.8664 22.18C20.9197 22.18 20.0531 21.94 19.2664 21.46C18.4797 20.9667 17.8531 20.2867 17.3864 19.42C16.9331 18.54 16.7064 17.5467 16.7064 16.44ZM25.7264 16.48C25.7264 15.72 25.5664 15.06 25.2464 14.5C24.9397 13.94 24.5331 13.5133 24.0264 13.22C23.5197 12.9267 22.9731 12.78 22.3864 12.78C21.7997 12.78 21.2531 12.9267 20.7464 13.22C20.2397 13.5 19.8264 13.92 19.5064 14.48C19.1997 15.0267 19.0464 15.68 19.0464 16.44C19.0464 17.2 19.1997 17.8667 19.5064 18.44C19.8264 19.0133 20.2397 19.4533 20.7464 19.76C21.2664 20.0533 21.8131 20.2 22.3864 20.2C22.9731 20.2 23.5197 20.0533 24.0264 19.76C24.5331 19.4667 24.9397 19.04 25.2464 18.48C25.5664 17.9067 25.7264 17.24 25.7264 16.48ZM35.2211 22.18C34.3544 22.18 33.5744 22.0267 32.8811 21.72C32.2011 21.4 31.6611 20.9733 31.2611 20.44C30.8611 19.8933 30.6478 19.2867 30.6211 18.62H32.9811C33.0211 19.0867 33.2411 19.48 33.6411 19.8C34.0544 20.1067 34.5678 20.26 35.1811 20.26C35.8211 20.26 36.3144 20.14 36.6611 19.9C37.0211 19.6467 37.2011 19.3267 37.2011 18.94C37.2011 18.5267 37.0011 18.22 36.6011 18.02C36.2144 17.82 35.5944 17.6 34.7411 17.36C33.9144 17.1333 33.2411 16.9133 32.7211 16.7C32.2011 16.4867 31.7478 16.16 31.3611 15.72C30.9878 15.28 30.8011 14.7 30.8011 13.98C30.8011 13.3933 30.9744 12.86 31.3211 12.38C31.6678 11.8867 32.1611 11.5 32.8011 11.22C33.4544 10.94 34.2011 10.8 35.0411 10.8C36.2944 10.8 37.3011 11.12 38.0611 11.76C38.8344 12.3867 39.2478 13.2467 39.3011 14.34H37.0211C36.9811 13.8467 36.7811 13.4533 36.4211 13.16C36.0611 12.8667 35.5744 12.72 34.9611 12.72C34.3611 12.72 33.9011 12.8333 33.5811 13.06C33.2611 13.2867 33.1011 13.5867 33.1011 13.96C33.1011 14.2533 33.2078 14.5 33.4211 14.7C33.6344 14.9 33.8944 15.06 34.2011 15.18C34.5078 15.2867 34.9611 15.4267 35.5611 15.6C36.3611 15.8133 37.0144 16.0333 37.5211 16.26C38.0411 16.4733 38.4878 16.7933 38.8611 17.22C39.2344 17.6467 39.4278 18.2133 39.4411 18.92C39.4411 19.5467 39.2678 20.1067 38.9211 20.6C38.5744 21.0933 38.0811 21.48 37.4411 21.76C36.8144 22.04 36.0744 22.18 35.2211 22.18ZM47.8047 10.8C48.6447 10.8 49.3914 10.98 50.0447 11.34C50.7114 11.7 51.2314 12.2333 51.6047 12.94C51.9914 13.6467 52.1847 14.5 52.1847 15.5V22H49.9247V15.84C49.9247 14.8533 49.678 14.1 49.1847 13.58C48.6914 13.0467 48.018 12.78 47.1647 12.78C46.3114 12.78 45.6314 13.0467 45.1247 13.58C44.6314 14.1 44.3847 14.8533 44.3847 15.84V22H42.1047V7.2H44.3847V12.26C44.7714 11.7933 45.258 11.4333 45.8447 11.18C46.4447 10.9267 47.098 10.8 47.8047 10.8ZM57.573 7.2V22H55.293V7.2H57.573ZM61.9264 9.52C61.5131 9.52 61.1664 9.38 60.8864 9.1C60.6064 8.82 60.4664 8.47333 60.4664 8.06C60.4664 7.64667 60.6064 7.3 60.8864 7.02C61.1664 6.74 61.5131 6.6 61.9264 6.6C62.3264 6.6 62.6664 6.74 62.9464 7.02C63.2264 7.3 63.3664 7.64667 63.3664 8.06C63.3664 8.47333 63.2264 8.82 62.9464 9.1C62.6664 9.38 62.3264 9.52 61.9264 9.52ZM63.0464 10.98V22H60.7664V10.98H63.0464ZM71.7998 10.8C72.6665 10.8 73.4398 10.98 74.1198 11.34C74.8132 11.7 75.3532 12.2333 75.7398 12.94C76.1265 13.6467 76.3198 14.5 76.3198 15.5V22H74.0598V15.84C74.0598 14.8533 73.8132 14.1 73.3198 13.58C72.8265 13.0467 72.1532 12.78 71.2998 12.78C70.4465 12.78 69.7665 13.0467 69.2598 13.58C68.7665 14.1 68.5198 14.8533 68.5198 15.84V22H66.2398V10.98H68.5198V12.24C68.8932 11.7867 69.3665 11.4333 69.9398 11.18C70.5265 10.9267 71.1465 10.8 71.7998 10.8ZM83.8681 10.8C84.7215 10.8 85.4748 10.9733 86.1281 11.32C86.7948 11.6533 87.3148 12.0733 87.6881 12.58V10.98H89.9881V22.18C89.9881 23.1933 89.7748 24.0933 89.3481 24.88C88.9215 25.68 88.3015 26.3067 87.4881 26.76C86.6881 27.2133 85.7281 27.44 84.6081 27.44C83.1148 27.44 81.8748 27.0867 80.8881 26.38C79.9015 25.6867 79.3415 24.74 79.2081 23.54H81.4681C81.6415 24.1133 82.0081 24.5733 82.5681 24.92C83.1415 25.28 83.8215 25.46 84.6081 25.46C85.5281 25.46 86.2681 25.18 86.8281 24.62C87.4015 24.06 87.6881 23.2467 87.6881 22.18V20.34C87.3015 20.86 86.7748 21.3 86.1081 21.66C85.4548 22.0067 84.7081 22.18 83.8681 22.18C82.9081 22.18 82.0281 21.94 81.2281 21.46C80.4415 20.9667 79.8148 20.2867 79.3481 19.42C78.8948 18.54 78.6681 17.5467 78.6681 16.44C78.6681 15.3333 78.8948 14.3533 79.3481 13.5C79.8148 12.6467 80.4415 11.9867 81.2281 11.52C82.0281 11.04 82.9081 10.8 83.8681 10.8ZM87.6881 16.48C87.6881 15.72 87.5281 15.06 87.2081 14.5C86.9015 13.94 86.4948 13.5133 85.9881 13.22C85.4815 12.9267 84.9348 12.78 84.3481 12.78C83.7615 12.78 83.2148 12.9267 82.7081 13.22C82.2015 13.5 81.7881 13.92 81.4681 14.48C81.1615 15.0267 81.0081 15.68 81.0081 16.44C81.0081 17.2 81.1615 17.8667 81.4681 18.44C81.7881 19.0133 82.2015 19.4533 82.7081 19.76C83.2281 20.0533 83.7748 20.2 84.3481 20.2C84.9348 20.2 85.4815 20.0533 85.9881 19.76C86.4948 19.4667 86.9015 19.04 87.2081 18.48C87.5281 17.9067 87.6881 17.24 87.6881 16.48ZM97.9628 22.18C96.9228 22.18 95.9828 21.9467 95.1428 21.48C94.3028 21 93.6428 20.3333 93.1628 19.48C92.6828 18.6133 92.4428 17.6133 92.4428 16.48C92.4428 15.36 92.6895 14.3667 93.1828 13.5C93.6761 12.6333 94.3495 11.9667 95.2028 11.5C96.0561 11.0333 97.0095 10.8 98.0628 10.8C99.1161 10.8 100.069 11.0333 100.923 11.5C101.776 11.9667 102.449 12.6333 102.943 13.5C103.436 14.3667 103.683 15.36 103.683 16.48C103.683 17.6 103.429 18.5933 102.923 19.46C102.416 20.3267 101.723 21 100.843 21.48C99.9761 21.9467 99.0161 22.18 97.9628 22.18ZM97.9628 20.2C98.5495 20.2 99.0961 20.06 99.6028 19.78C100.123 19.5 100.543 19.08 100.863 18.52C101.183 17.96 101.343 17.28 101.343 16.48C101.343 15.68 101.189 15.0067 100.883 14.46C100.576 13.9 100.169 13.48 99.6628 13.2C99.1561 12.92 98.6095 12.78 98.0228 12.78C97.4361 12.78 96.8895 12.92 96.3828 13.2C95.8895 13.48 95.4961 13.9 95.2028 14.46C94.9095 15.0067 94.7628 15.68 94.7628 16.48C94.7628 17.6667 95.0628 18.5867 95.6628 19.24C96.2761 19.88 97.0428 20.2 97.9628 20.2Z" fill="white"/>
<circle cx="113" cy="21" r="3" fill="#F58634"/>
</svg>
