<svg width="249" height="249" viewBox="0 0 249 249" fill="none" xmlns="http://www.w3.org/2000/svg">
<path d="M237.885 137.777C237.885 137.777 237.85 67.5935 200.261 34.0732C167.079 4.482 121.398 -1.52886 90.7209 32.6887C79.7898 44.8798 66.5729 57.5887 52.8431 66.1045C37.4549 75.6562 19.4771 80.0186 8.98421 111.642C-1.50865 143.265 14.7311 189.643 38.5256 206.062C62.32 222.481 99.6053 216.381 131.652 209.514C163.698 202.646 235.091 224.867 237.885 137.777Z" fill="#407BFF"/>
<path opacity="0.7" d="M237.885 137.777C237.885 137.777 237.85 67.5935 200.261 34.0732C167.079 4.482 121.398 -1.52886 90.7209 32.6887C79.7898 44.8798 66.5729 57.5887 52.8431 66.1045C37.4549 75.6562 19.4771 80.0186 8.98421 111.642C-1.50865 143.265 14.7311 189.643 38.5256 206.062C62.32 222.481 99.6053 216.381 131.652 209.514C163.698 202.646 235.091 224.867 237.885 137.777Z" fill="white"/>
<path opacity="0.16" d="M123.633 237.949C165.821 237.949 200.022 233.778 200.022 228.632C200.022 223.486 165.821 219.314 123.633 219.314C81.4453 219.314 47.2451 223.486 47.2451 228.632C47.2451 233.778 81.4453 237.949 123.633 237.949Z" fill="black"/>
<path opacity="0.07" d="M200.261 34.0682C195.042 29.3965 189.379 25.2451 183.354 21.673L133.644 96.373L201.192 34.9247C200.889 34.6359 200.58 34.362 200.261 34.0682ZM155.775 10.8614C148.023 9.24722 140.056 8.94255 132.204 9.96001L133.644 96.368L155.775 10.8614ZM103.674 21.1451C98.9261 24.4793 94.581 28.3531 90.7259 32.6887C89.378 34.1993 87.9919 35.7132 86.5676 37.2305L133.649 96.3779L103.674 21.1451ZM62.8927 59.1026C59.6644 61.6041 56.3119 63.9411 52.848 66.1045C45.393 70.716 37.3503 74.1373 29.8056 80.0186L133.644 96.3779L62.8927 59.1026ZM5.92149 127.891C5.01015 141.372 7.56489 155.964 12.51 169.161L133.644 96.3779L5.92149 127.891ZM133.644 96.3779L47.1659 210.833C59.7453 216.311 74.8696 217.307 90.5417 216.102L133.644 96.3779ZM133.644 96.3779L137.757 208.567C146.646 207.616 157.503 207.91 168.748 207.427L133.644 96.3779ZM230.724 174.116L133.644 96.3779L209.23 198.274C218.03 193.349 225.594 185.784 230.724 174.116ZM234.832 107.07L133.644 96.3779L237.79 134.091C237.375 125.031 236.387 116.006 234.832 107.07ZM218.443 57.4294L133.644 96.3779L227.342 77.6133C224.947 70.6476 221.97 63.8958 218.443 57.4294Z" fill="black"/>
<path d="M221.411 166.969C221.411 166.969 216.038 165.152 214.439 164.041C212.841 162.931 208.752 158.827 207.801 155.665C206.98 152.746 206.435 149.756 206.173 146.736C205.934 144.286 204.908 143.653 203.404 145.55C201.9 147.448 201.412 150.53 201.825 152.522C202.238 154.514 203.483 156.79 203.319 157.189C203.155 157.587 202.921 158.374 202.921 158.374C202.921 158.374 198.1 157.821 195.416 157.189C192.732 156.556 190.595 156.317 190.436 157.582C190.276 158.847 190.829 160.824 190.989 162.169C191.148 163.513 193.2 169.44 194.231 170.779C194.961 171.822 195.808 172.777 196.755 173.628C197.388 174.101 197.388 174.494 198.892 174.654C200.166 174.768 201.433 174.952 202.687 175.206C203.239 175.366 203.792 175.918 206.402 175.839C208.042 175.782 209.677 175.624 211.297 175.366L219.121 178.284L221.411 166.969Z" fill="white" stroke="#263238" stroke-width="0.75" stroke-miterlimit="10"/>
<path d="M218.881 165.465L215.639 179.534L220.937 181.665L223.622 167.049L218.881 165.465Z" fill="white" stroke="#263238" stroke-width="0.75" stroke-miterlimit="10"/>
<path d="M232.227 168.155L221.884 165.625L218.089 182.378L232.167 188.946L232.227 187.676V168.155Z" fill="#263238" stroke="#263238" stroke-width="0.75" stroke-miterlimit="10"/>
<path d="M202.602 159.066C202.602 159.066 201.89 163.344 201.89 164.34C201.89 165.336 204.101 168.135 204.878 168.289" stroke="#263238" stroke-width="0.75" stroke-miterlimit="10"/>
<path d="M201.017 169.818C201.017 169.818 202.128 170.211 201.809 171.163C201.491 172.114 199.12 173.453 198.015 174.086C196.909 174.718 196.521 174.639 195.251 173.926C194.504 173.514 193.94 172.837 193.667 172.029C194.463 172.009 195.257 171.931 196.042 171.795L201.017 169.818Z" fill="white" stroke="#263238" stroke-width="0.75" stroke-miterlimit="10"/>
<path d="M191.929 167.756C191.929 167.756 191.929 171.392 192.801 171.71C193.633 172.031 194.518 172.192 195.41 172.183C195.963 172.104 199.678 170.839 200.39 170.366C201.102 169.893 201.814 168.872 201.421 167.916L201.023 166.969C199.822 167.175 198.606 167.28 197.387 167.283C195.395 167.283 192.094 166.651 191.854 166.89C191.615 167.129 191.929 167.756 191.929 167.756Z" fill="white" stroke="#263238" stroke-width="0.75" stroke-miterlimit="10"/>
<path d="M190.734 162.846C190.576 162.947 190.449 163.088 190.365 163.256C190.282 163.424 190.246 163.611 190.261 163.797C190.261 164.509 189.315 166.641 190.42 167.353C191.526 168.065 195.002 168.618 195.714 168.618C196.426 168.618 200.614 167.124 201.008 166.959C201.401 166.795 201.406 165.376 201.247 164.823C201.087 164.27 199.668 164.111 199.668 164.111C199.668 164.111 193.592 163.967 190.734 162.846Z" fill="white" stroke="#263238" stroke-width="0.75" stroke-miterlimit="10"/>
<path d="M192.801 158.035C192.801 158.035 195.331 159.933 195.789 160.092L199.663 161.437C199.663 161.437 200.161 161.671 200.161 162.622C200.152 163.032 199.997 163.424 199.723 163.729C199.448 164.033 199.074 164.229 198.667 164.28C197.88 164.44 195.032 164.913 194.006 164.519C192.607 163.828 191.261 163.035 189.977 162.149C189.265 161.651 189.185 161.038 189.579 160.157C189.921 159.305 190.212 158.434 190.45 157.547" fill="white"/>
<path d="M192.801 158.035C192.801 158.035 195.331 159.933 195.789 160.092L199.663 161.437C199.663 161.437 200.161 161.671 200.161 162.622C200.152 163.032 199.997 163.424 199.723 163.729C199.448 164.033 199.074 164.229 198.667 164.28C197.88 164.44 195.032 164.913 194.006 164.519C192.607 163.828 191.261 163.035 189.977 162.149C189.265 161.651 189.185 161.038 189.579 160.157C189.921 159.305 190.212 158.434 190.45 157.547" stroke="#263238" stroke-width="0.75" stroke-miterlimit="10"/>
<path d="M205.674 44.7602C205.674 44.7602 200.241 46.4086 198.313 46.4285C196.386 46.4485 190.649 45.4973 188.04 43.4754C185.665 41.5877 183.474 39.4801 181.496 37.1807C179.877 35.3231 178.672 35.4078 178.553 37.8231C178.433 40.2384 179.842 43.0222 181.317 44.4017C182.791 45.7811 185.146 46.8917 185.251 47.32C185.355 47.7482 185.619 48.5152 185.619 48.5152C185.619 48.5152 181.376 50.8707 178.822 51.9165C176.267 52.9623 174.394 54.0181 175.002 55.1386C175.609 56.2591 177.208 57.5439 178.119 58.5449C179.031 59.5459 184.15 63.1663 185.769 63.6643C186.97 64.0837 188.214 64.3661 189.479 64.5059C190.271 64.5059 190.475 64.8446 191.814 64.1026C192.915 63.4509 194.052 62.8639 195.221 62.3446C195.764 62.1504 196.535 62.2799 198.607 60.6962C199.91 59.6952 201.149 58.6141 202.317 57.4592L210.385 55.283L205.674 44.7602Z" fill="white" stroke="#263238" stroke-width="0.75" stroke-miterlimit="10"/>
<path d="M202.735 45.0092L208.288 58.3357L213.836 56.9911L207.511 43.5352L202.735 45.0092Z" fill="white" stroke="#263238" stroke-width="0.75" stroke-miterlimit="10"/>
<path d="M215.156 39.4316L205.271 43.3907L211.934 59.2222L227.202 56.3736L226.515 55.3079L215.156 39.4316Z" fill="#263238" stroke="#263238" stroke-width="0.75" stroke-miterlimit="10"/>
<path d="M185.754 49.302C185.754 49.302 187.661 53.1864 188.244 54.023C188.827 54.8597 192.228 55.8208 192.985 55.4872" stroke="#263238" stroke-width="0.75" stroke-miterlimit="10"/>
<path d="M190.734 58.9383C190.734 58.9383 191.865 58.6146 192.158 59.5708C192.452 60.5269 191.307 62.997 190.774 64.1573C190.241 65.3177 189.878 65.482 188.433 65.6513C187.587 65.7517 186.733 65.5294 186.043 65.0288C186.679 64.5502 187.279 64.0242 187.836 63.4551L190.734 58.9383Z" fill="white" stroke="#263238" stroke-width="0.75" stroke-miterlimit="10"/>
<path d="M182.153 62.5538C182.153 62.5538 184.265 65.5119 185.141 65.2629C186.005 65.0392 186.819 64.6558 187.542 64.1324C187.945 63.744 190.231 60.5568 190.53 59.755C190.829 58.9532 190.814 57.7082 189.942 57.1654L189.071 56.6226C188.213 57.4898 187.286 58.2844 186.297 58.9981C184.688 60.1435 181.621 61.5628 181.566 61.8914C181.511 62.2201 182.153 62.5538 182.153 62.5538Z" fill="white" stroke="#263238" stroke-width="0.75" stroke-miterlimit="10"/>
<path d="M178.334 59.262C178.265 59.4362 178.244 59.6257 178.274 59.8107C178.304 59.9956 178.383 60.1691 178.503 60.3128C178.916 60.8904 179.385 63.1763 180.699 63.1115C182.014 63.0468 185.181 61.4731 185.744 61.0598C186.307 60.6464 188.852 56.9861 189.086 56.6276C189.32 56.269 188.483 55.1336 188.035 54.7551C187.587 54.3766 186.337 55.0987 186.337 55.0987C186.337 55.0987 181.272 58.505 178.334 59.262Z" fill="white" stroke="#263238" stroke-width="0.75" stroke-miterlimit="10"/>
<path d="M177.203 54.1426C177.203 54.1426 180.36 54.2123 180.838 54.0679C181.316 53.9234 184.772 52.9075 184.772 52.9075C184.772 52.9075 185.295 52.8229 185.848 53.5948C186.081 53.9336 186.183 54.3455 186.136 54.7539C186.088 55.1624 185.894 55.5397 185.589 55.8158C185.041 56.4085 183.004 58.4453 181.939 58.7242C180.397 58.9753 178.839 59.1151 177.277 59.1425C176.426 59.1425 175.993 58.6993 175.783 57.763C175.565 56.873 175.294 55.9967 174.972 55.1386" fill="white"/>
<path d="M177.203 54.1426C177.203 54.1426 180.36 54.2123 180.838 54.0679C181.316 53.9234 184.772 52.9075 184.772 52.9075C184.772 52.9075 185.295 52.8229 185.848 53.5948C186.081 53.9336 186.183 54.3455 186.136 54.7539C186.088 55.1624 185.894 55.5397 185.589 55.8158C185.041 56.4085 183.004 58.4453 181.939 58.7242C180.397 58.9753 178.839 59.1151 177.277 59.1425C176.426 59.1425 175.993 58.6993 175.783 57.763C175.565 56.873 175.294 55.9967 174.972 55.1386" stroke="#263238" stroke-width="0.75" stroke-miterlimit="10"/>
<path d="M31.792 165.182C31.792 165.182 37.1654 163.364 38.764 162.258C40.3626 161.153 44.4362 157.039 45.3824 153.882C46.2174 150.965 46.7743 147.975 47.0457 144.953C47.2798 142.503 48.3106 141.87 49.8096 143.768C51.3086 145.665 51.8016 148.748 51.3883 150.74C50.975 152.732 49.73 155.007 49.8943 155.401C50.0586 155.794 50.2877 156.586 50.2877 156.586C50.2877 156.586 55.1084 156.033 57.7976 155.401C60.4868 154.768 62.6182 154.529 62.7775 155.794C62.9369 157.059 62.3792 159.036 62.2248 160.381C62.0704 161.726 60.0087 167.652 58.9828 168.996C58.2511 170.038 57.4023 170.992 56.453 171.84C55.8205 172.338 55.8205 172.711 54.3215 172.866C53.0476 172.982 51.7809 173.167 50.5268 173.419C49.974 173.578 49.4212 174.131 46.8117 174.051C45.17 173.995 43.5334 173.837 41.9114 173.578L34.0878 176.501L31.792 165.182Z" fill="white" stroke="#263238" stroke-width="0.75" stroke-miterlimit="10"/>
<path d="M34.3221 163.678L37.5591 177.746L32.2654 179.883L29.5762 165.261L34.3221 163.678Z" fill="white" stroke="#263238" stroke-width="0.75" stroke-miterlimit="10"/>
<path d="M20.9707 166.367L31.3142 163.837L35.1089 180.59L21.0354 187.158L20.9707 185.888V166.367Z" fill="#263238" stroke="#263238" stroke-width="0.75" stroke-miterlimit="10"/>
<path d="M50.602 157.278C50.602 157.278 51.3142 161.546 51.3142 162.572C51.3142 163.598 49.0981 166.367 48.3262 166.526" stroke="#263238" stroke-width="0.75" stroke-miterlimit="10"/>
<path d="M52.1799 168.025C52.1799 168.025 51.0743 168.424 51.3881 169.37C51.7018 170.316 54.0773 171.661 55.1828 172.293C56.2884 172.926 56.6768 172.846 57.9517 172.134C58.6976 171.724 59.2614 171.048 59.5304 170.241C58.7353 170.222 57.9428 170.142 57.1599 170.002L52.1799 168.025Z" fill="white" stroke="#263238" stroke-width="0.75" stroke-miterlimit="10"/>
<path d="M61.2538 165.973C61.2538 165.973 61.2538 169.609 60.3873 169.923C59.5574 170.254 58.6715 170.423 57.7778 170.421C57.225 170.341 53.5099 169.081 52.7978 168.603C52.0856 168.125 51.3735 167.109 51.7719 166.153L52.1653 165.207C53.3663 165.412 54.5823 165.517 55.8007 165.52C57.7927 165.52 61.0945 164.888 61.3335 165.127C61.5725 165.366 61.2538 165.973 61.2538 165.973Z" fill="white" stroke="#263238" stroke-width="0.75" stroke-miterlimit="10"/>
<path d="M62.4543 161.073C62.6187 161.167 62.7529 161.306 62.8411 161.474C62.9293 161.641 62.9679 161.831 62.9523 162.019C62.9523 162.731 63.9035 164.863 62.798 165.575C61.6924 166.287 58.1865 166.83 57.4743 166.83C56.7622 166.83 52.574 165.336 52.1806 165.172C51.7872 165.007 51.7872 163.588 51.9465 163.035C52.1059 162.482 53.5252 162.328 53.5252 162.328C53.5252 162.328 59.6108 162.179 62.4543 161.073Z" fill="white" stroke="#263238" stroke-width="0.75" stroke-miterlimit="10"/>
<path d="M60.4024 156.252C60.4024 156.252 57.8726 158.145 57.4144 158.304C56.9563 158.464 53.54 159.649 53.54 159.649C53.54 159.649 53.042 159.888 53.042 160.834C53.0497 161.244 53.205 161.637 53.4795 161.942C53.7539 162.247 54.1291 162.442 54.536 162.492C55.3278 162.652 58.1714 163.125 59.2022 162.731C60.6065 162.04 61.9581 161.246 63.246 160.356C63.9582 159.883 64.0378 159.25 63.6394 158.364C63.2999 157.512 63.0105 156.641 62.7729 155.754" fill="white"/>
<path d="M60.4024 156.252C60.4024 156.252 57.8726 158.145 57.4144 158.304C56.9563 158.464 53.54 159.649 53.54 159.649C53.54 159.649 53.042 159.888 53.042 160.834C53.0497 161.244 53.205 161.637 53.4795 161.942C53.7539 162.247 54.1291 162.442 54.536 162.492C55.3278 162.652 58.1714 163.125 59.2022 162.731C60.6065 162.04 61.9581 161.246 63.246 160.356C63.9582 159.883 64.0378 159.25 63.6394 158.364C63.2999 157.512 63.0105 156.641 62.7729 155.754" stroke="#263238" stroke-width="0.75" stroke-miterlimit="10"/>
<path d="M37.6339 49.4912C37.6339 49.4912 43.0621 51.1396 44.9944 51.1596C46.9266 51.1795 52.6536 50.2283 55.2681 48.2064C57.6425 46.3187 59.8335 44.2111 61.8118 41.9117C63.4303 40.0542 64.6355 40.1388 64.75 42.5541C64.8646 44.9694 63.4602 47.7532 61.9911 49.1327C60.522 50.5122 58.1565 51.6227 58.0569 52.051C57.9573 52.4792 57.6884 53.2462 57.6884 53.2462C57.6884 53.2462 61.9314 55.5967 64.4861 56.6475C67.0408 57.6983 68.9133 58.7441 68.3058 59.8646C67.6982 60.9851 66.0996 62.2699 65.1883 63.2709C64.2769 64.2719 59.1575 67.8973 57.539 68.3953C56.338 68.8148 55.0933 69.0971 53.8289 69.237C53.0371 69.237 52.8329 69.5756 51.4933 68.8286C50.3902 68.182 49.2531 67.5951 48.087 67.0706C47.5441 66.8814 46.7722 67.0059 44.6956 65.4273C43.3952 64.4254 42.1578 63.3444 40.9904 62.1903L32.9229 60.014L37.6339 49.4912Z" fill="white" stroke="#263238" stroke-width="0.75" stroke-miterlimit="10"/>
<path d="M40.5672 49.7403L35.0145 63.0667L29.4668 61.7221L35.7914 48.2662L40.5672 49.7403Z" fill="white" stroke="#263238" stroke-width="0.75" stroke-miterlimit="10"/>
<path d="M28.1472 44.1627L38.0325 48.1218L31.3693 63.9532L16.1006 61.1046L16.7878 60.0339L28.1472 44.1627Z" fill="#263238" stroke="#263238" stroke-width="0.75" stroke-miterlimit="10"/>
<path d="M57.5347 54.0081C57.5347 54.0081 55.6273 57.8925 55.0447 58.7242C54.462 59.5558 51.0607 60.522 50.3037 60.2182" stroke="#263238" stroke-width="0.75" stroke-miterlimit="10"/>
<path d="M52.5645 63.6693C52.5645 63.6693 51.434 63.3456 51.1402 64.3018C50.8464 65.2579 51.9918 67.728 52.5247 68.8834C53.0575 70.0387 53.4211 70.2081 54.8653 70.3774C55.7118 70.4748 56.5642 70.2528 57.2557 69.7549C56.6192 69.2763 56.0199 68.7502 55.4629 68.1812L52.5645 63.6693Z" fill="white" stroke="#263238" stroke-width="0.75" stroke-miterlimit="10"/>
<path d="M61.1499 67.2848C61.1499 67.2848 59.0334 70.2429 58.1619 69.9939C57.2967 69.772 56.4819 69.3866 55.7615 68.8585C55.3582 68.475 53.0723 65.2828 52.7735 64.486C52.4747 63.6892 52.4947 62.4343 53.3662 61.8964L54.2377 61.3536C55.0929 62.2215 56.0209 63.0145 57.0115 63.7241C58.6201 64.8745 61.6877 66.2938 61.7425 66.6224C61.7973 66.9511 61.1499 67.2848 61.1499 67.2848Z" fill="white" stroke="#263238" stroke-width="0.75" stroke-miterlimit="10"/>
<path d="M64.9639 63.988C65.0346 64.1616 65.0567 64.3511 65.0277 64.5363C64.9988 64.7214 64.9199 64.8951 64.7996 65.0388C64.3862 65.6165 63.9131 67.9023 62.6034 67.8376C61.2937 67.7728 58.1214 66.1992 57.5587 65.7858C56.9959 65.3725 54.4462 61.7122 54.2171 61.3536C53.988 60.9951 54.8147 59.8596 55.2679 59.4811C55.721 59.1027 56.966 59.8198 56.966 59.8198C56.966 59.8198 62.0058 63.246 64.9639 63.988Z" fill="white" stroke="#263238" stroke-width="0.75" stroke-miterlimit="10"/>
<path d="M66.1 58.8736C66.1 58.8736 62.9377 58.9433 62.4596 58.7989C61.9815 58.6545 58.5304 57.6336 58.5304 57.6336C58.5304 57.6336 58.0324 57.5539 57.4547 58.3258C57.2221 58.6644 57.1196 59.0757 57.1663 59.4838C57.213 59.892 57.4056 60.2695 57.7087 60.5469C58.2615 61.1345 60.2983 63.1763 61.364 63.4552C62.9055 63.7073 64.4635 63.8454 66.0253 63.8685C66.8769 63.8984 67.3101 63.4303 67.4944 62.494C67.7135 61.6025 67.9845 60.7245 68.3061 59.8646" fill="white"/>
<path d="M66.1 58.8736C66.1 58.8736 62.9377 58.9433 62.4596 58.7989C61.9815 58.6545 58.5304 57.6336 58.5304 57.6336C58.5304 57.6336 58.0324 57.5539 57.4547 58.3258C57.2221 58.6644 57.1196 59.0757 57.1663 59.4838C57.213 59.892 57.4056 60.2695 57.7087 60.5469C58.2615 61.1345 60.2983 63.1763 61.364 63.4552C62.9055 63.7073 64.4635 63.8454 66.0253 63.8685C66.8769 63.8984 67.3101 63.4303 67.4944 62.494C67.7135 61.6025 67.9845 60.7245 68.3061 59.8646" stroke="#263238" stroke-width="0.75" stroke-miterlimit="10"/>
<path d="M110.556 121.686C110.556 121.686 107.07 136.955 106.93 144.136C106.791 151.317 107.189 177.198 107.324 182.751C107.458 188.304 109.899 206.326 109.899 207.95C109.899 209.573 110.307 212.691 110.307 212.691L109.221 218.517C108.159 219.338 107.026 220.063 105.835 220.684C103.395 222.038 100.551 223.801 99.7394 224.747C99.6405 224.861 99.5704 224.997 99.535 225.144C99.4997 225.291 99.5001 225.444 99.5362 225.59C99.5723 225.736 99.6431 225.872 99.7426 225.985C99.8421 226.099 99.9674 226.187 100.108 226.241C101.074 226.62 102.091 226.85 103.126 226.924C105.427 227.058 109.221 227.058 111.253 226.515C113.285 225.973 114.913 224.215 115.86 223.527L116.811 222.85L116.945 224.344C117.401 224.277 117.854 224.186 118.3 224.07C119.294 223.784 120.249 223.376 121.143 222.855C121.143 222.855 121.278 220.549 121.278 219.195C121.278 217.84 120.601 215.4 120.466 214.862C120.332 214.324 120.466 209.439 120.063 207.815C119.659 206.192 119.385 206.595 119.112 203.617C118.838 200.639 121.278 172.452 121.143 171.641C121.009 170.829 124.59 146.412 124.59 146.412C124.59 146.412 131.437 178.284 133.603 184.385C135.77 190.485 136.855 202.268 136.855 203.084C136.855 203.901 138.075 213.513 138.618 214.872C139.161 216.232 140.65 220.425 140.65 220.425C140.65 220.425 142.816 223.677 143.763 225.3C144.709 226.924 147.966 228.288 150.401 228.687C152.836 229.085 154.738 229.229 154.883 225.977C155.027 222.726 153.802 220.559 151.765 219.07C149.729 217.581 149.33 216.227 149.33 216.227C149.478 214.237 149.478 212.24 149.33 210.251C149.056 207.945 147.567 206.182 147.433 201.441C147.298 196.7 146.347 171.77 145.535 167.841C144.724 163.912 143.653 137.627 143.787 133.977C143.922 130.327 143.444 120.128 143.444 120.128L110.456 119.754L110.556 121.686Z" fill="#263238" stroke="#263238" stroke-width="0.75" stroke-miterlimit="10"/>
<path d="M123.504 67.1005C123.504 67.1005 118.469 70.0885 114.903 71.8515C111.338 73.6144 106.985 74.6403 106.542 75.6412C106.099 76.6422 98.4046 93.0364 96.9554 95.2624C95.5062 97.4885 92.0501 101.841 92.7174 104.291C93.3847 106.741 96.1735 110.088 97.9564 109.869C99.7392 109.65 103.31 108.639 104.759 106.079C106.208 103.519 109.664 95.2624 109.664 95.2624C109.664 95.2624 110.222 102.957 110.108 106.746C109.993 110.536 109.998 113.659 109.774 115.551C109.55 117.443 108.549 119.789 108.992 120.456C109.435 121.124 109.988 121.796 110.556 121.686C111.123 121.577 119.475 121.462 122.01 121.572C124.545 121.681 136.168 121.572 138.623 121.686C141.078 121.801 143.195 120.571 143.414 120.123C143.633 119.674 144.086 119.007 143.862 116.557C143.638 114.107 144.086 106.637 144.753 103.738C145.421 100.84 149.435 89.6898 149.435 89.6898C149.435 89.6898 160.027 98.0512 162.258 98.7186C164.489 99.3859 170.505 98.3849 172.512 95.9347C174.519 93.4846 175.186 91.5822 173.961 89.9139C172.736 88.2456 168.274 86.6819 163.593 81.6621C158.912 76.6422 157.119 74.3066 153.897 72.7429C150.675 71.1792 144.086 69.0676 142.522 68.3953C140.959 67.723 140.53 67.3993 139.534 66.9462C138.538 66.493 136.188 65.6115 131.84 65.497C128.985 65.4974 126.156 66.0416 123.504 67.1005Z" fill="#407BFF" stroke="#263238" stroke-width="0.75" stroke-miterlimit="10"/>
<path d="M107.414 87.3641C107.568 87.902 109.66 95.2624 109.66 95.2624L106.572 89.142" stroke="#263238" stroke-width="0.75" stroke-miterlimit="10"/>
<path d="M149.455 89.6898C148.992 89.6898 144.609 87.1998 144.609 87.1998" stroke="#263238" stroke-width="0.75" stroke-miterlimit="10"/>
<path d="M142.378 86.906C142.378 86.906 144.146 89.2117 145.685 89.6699" stroke="#263238" stroke-width="0.75" stroke-miterlimit="10"/>
<path d="M122.877 73.9381L124.276 79.2218C124.276 79.2218 119.844 101.378 119.147 105.118C118.722 107.377 118.436 109.661 118.29 111.955L122.174 119.649L127.075 111.333C127.075 111.333 126.607 100.84 126.452 92.4487C126.298 84.0574 126.607 79.9987 126.527 79.7796C126.447 79.5605 131.427 75.8902 131.427 75.8902C131.427 75.8902 134.301 72.703 134.455 72.1602C134.609 71.6174 132.438 72.3146 131.965 72.7827C131.436 73.2308 130.808 73.5484 130.134 73.7101C129.459 73.8719 128.756 73.8732 128.081 73.714C126.059 73.3255 123.414 71.0746 123.026 72.1602C122.793 72.7231 122.741 73.3443 122.877 73.9381Z" fill="#263238" stroke="#263238" stroke-width="0.75" stroke-miterlimit="10"/>
<path d="M126.218 64.9243C125.984 65.0787 124.122 65.5468 123.499 67.1005C122.877 68.6543 119.69 75.8056 118.758 76.9709C117.827 78.1362 119.301 77.6681 120.546 76.8912C121.791 76.1143 122.877 73.0865 123.574 74.4012C124.271 75.7159 126.298 76.2637 126.298 76.2637C126.298 76.2637 130.491 75.4869 131.427 74.8644C132.065 74.419 132.664 73.9192 133.215 73.3704C133.215 73.3704 136.791 78.7338 137.797 79.197C138.803 79.6601 138.967 78.8882 139.042 78.0316C139.41 74.9094 140.008 71.8184 140.83 68.7838C141.826 65.4422 139.898 64.3516 138.653 62.9572C137.408 61.5628 136.009 62.4891 134.615 62.6434C133.22 62.7978 126.218 64.9243 126.218 64.9243Z" fill="#407BFF" stroke="#263238" stroke-width="0.75" stroke-miterlimit="10"/>
<path d="M124.087 40.9904C124.087 40.9904 121.657 44.6806 122.095 45.577C122.533 46.4734 122.543 47.6487 122.095 48.2761C121.757 48.6887 121.509 49.1682 121.369 49.6832C121.229 50.1982 121.2 50.737 121.283 51.2641C121.463 52.793 120.566 60.5269 121.916 61.4283C122.784 61.9929 123.719 62.4463 124.7 62.7779C124.7 62.7779 126.229 75.7259 126.771 75.3673C127.314 75.0088 135.058 67.0756 135.955 65.3625C136.851 63.6494 137.947 61.2291 137.947 61.2291C137.947 61.2291 141.004 55.3826 142.802 52.9524C144.6 50.5221 146.671 46.0302 146.044 43.6896C145.417 41.349 142.175 39.6408 140.646 38.3809C139.117 37.1209 140.108 34.2475 137.947 32.8083C135.785 31.369 133.181 31.0105 131.472 31.638C129.764 32.2654 129.675 33.63 127.603 32.2654C125.531 30.9009 123.559 29.5713 120.412 31.1001C117.265 32.629 116.632 38.0223 118.52 39.4615C120.407 40.9008 124.087 40.9904 124.087 40.9904Z" fill="white" stroke="#263238" stroke-width="0.75" stroke-miterlimit="10"/>
<path d="M140.635 38.3809C139.106 37.1259 140.097 34.2475 137.936 32.8083C135.774 31.369 133.17 31.0105 131.462 31.638C129.754 32.2654 129.664 33.63 127.592 32.2654C125.521 30.9009 123.549 29.5713 120.401 31.1001C117.254 32.629 116.621 38.0223 118.509 39.4615C120.396 40.9008 124.086 40.9904 124.086 40.9904C124.086 40.9904 126.786 39.7305 128.568 38.7444C130.351 37.7584 134.415 39.3719 135.132 40.0044C135.849 40.6368 134.773 40.1836 134.594 41.349C134.415 42.5143 136.661 44.4117 137.652 45.333C138.643 46.2543 137.473 46.8618 137.204 48.0321C136.935 49.2024 138.01 49.6506 138.643 49.2024C139.275 48.7542 141.247 46.2144 141.97 47.6736C142.692 49.1327 143.767 51.2691 141.79 52.798C139.813 54.3268 138.369 53.9683 138.369 53.9683C138.369 53.9683 137.727 57.8626 139.594 58.1664C140.564 56.3823 141.626 54.6503 142.776 52.9772C144.579 50.552 146.646 46.0551 146.018 43.7145C145.391 41.3739 142.164 39.6408 140.635 38.3809Z" fill="#263238" stroke="#263238" stroke-width="0.75" stroke-miterlimit="10"/>
<path d="M128.942 45.7563C129.516 45.5421 130.129 45.4505 130.74 45.4873" stroke="#263238" stroke-width="0.5" stroke-miterlimit="10"/>
<path d="M124.341 46.6427C123.897 46.7366 123.469 46.8908 123.066 47.1009" stroke="#263238" stroke-width="0.5" stroke-miterlimit="10"/>
<path d="M124.371 44.1876C124.691 44.7998 124.784 45.5052 124.635 46.1796C124.341 47.1756 121.557 49.3518 121.592 49.7751C121.627 50.1984 123.226 51.0849 123.196 51.4434C123.166 51.802 123.066 52.3946 123.066 52.3946" stroke="#263238" stroke-width="0.75" stroke-miterlimit="10"/>
<path d="M130.456 47.0013C130.78 47.0013 131.043 46.678 131.043 46.2792C131.043 45.8804 130.78 45.5571 130.456 45.5571C130.131 45.5571 129.868 45.8804 129.868 46.2792C129.868 46.678 130.131 47.0013 130.456 47.0013Z" fill="#263238" stroke="#263238" stroke-width="0.5" stroke-miterlimit="10"/>
<path d="M129.311 47.4594C130.101 47.1284 130.944 46.9395 131.801 46.9016" stroke="#263238" stroke-width="0.75" stroke-miterlimit="10"/>
<path d="M127.234 43.1268C127.234 43.1268 129.162 41.339 130.656 41.6976C132.15 42.0561 132.717 43.4953 132.478 43.5003C132.239 43.5053 131.482 42.3948 130.666 42.3101C129.849 42.2254 129.266 42.6139 128.559 42.9724C127.852 43.331 127.419 43.58 127.234 43.1268Z" fill="#263238" stroke="#263238" stroke-width="0.5" stroke-miterlimit="10"/>
<path d="M124.501 44.5461C124.478 44.4246 124.431 44.3091 124.361 44.2071C124.291 44.1051 124.201 44.0189 124.096 43.9541C123.991 43.8893 123.873 43.8474 123.751 43.831C123.628 43.8146 123.504 43.8241 123.385 43.8589C122.504 43.9933 121.836 45.5969 122.105 45.577C122.374 45.5571 122.668 44.5461 123.355 44.4515C124.042 44.3569 124.501 45.4326 124.501 44.5461Z" fill="#263238" stroke="#263238" stroke-width="0.5" stroke-miterlimit="10"/>
<path d="M123.006 54.4264C123.006 54.4264 124.415 54.2621 126.248 54.033C128.08 53.8039 130.66 53.4454 131.088 52.1356C131.333 51.5011 131.443 50.8229 131.412 50.1436" stroke="#263238" stroke-width="0.75" stroke-miterlimit="10"/>
<path d="M130.422 50.044C130.958 50.0002 131.498 50.0337 132.025 50.1436" stroke="#263238" stroke-width="0.75" stroke-miterlimit="10"/>
<path d="M137.971 56.5081C137.713 57.7221 137 58.7913 135.979 59.4961C134.345 60.5369 122.349 61.7271 122.747 61.8765C123.145 62.0259 124.704 62.7729 124.704 62.7729L125.172 67.0308C127.062 65.3582 129.163 63.9417 131.422 62.8177C135.396 60.756 137.876 60.0738 137.971 56.5081Z" fill="#263238" stroke="#263238" stroke-width="0.5" stroke-miterlimit="10"/>
<path d="M144.664 114.66C144.664 114.66 142.433 114.55 141.875 114.44C141.317 114.331 139.535 112.653 138.753 112.767C137.971 112.882 136.527 114.44 135.969 115.755C135.411 117.07 135.187 117.747 135.187 117.747C135.187 117.747 133.195 119.53 134.191 120.735C135.187 121.94 136.312 121.517 136.312 121.517C136.312 121.517 136.98 122.633 137.871 122.742C138.533 122.815 139.198 122.854 139.863 122.857C140.44 123.033 141.043 123.109 141.646 123.081C142.122 122.976 142.576 122.787 142.986 122.523C143.459 122.578 143.935 122.458 144.325 122.184C144.734 121.861 146.711 119.839 147.732 118.798L148.334 118.175L144.664 114.66Z" fill="white" stroke="#263238" stroke-width="0.75" stroke-miterlimit="10"/>
<path d="M163.279 91.6968C163.279 91.6968 159.156 96.2684 157.801 98.4945C155.643 101.891 153.299 105.166 150.78 108.305C149.221 110.088 143.758 114.44 143.758 114.44C143.758 114.44 145.426 118.006 146.656 118.564C147.372 118.893 148.117 119.153 148.882 119.341L153.364 115.999C153.364 115.999 161.83 109.525 166.312 105.855C170.794 102.185 177.014 97.2694 177.462 95.1529C177.911 93.0364 177.572 91.9209 175.346 90.2476C173.961 89.2221 172.416 88.4314 170.774 87.907" fill="#407BFF"/>
<path d="M163.279 91.6968C163.279 91.6968 159.156 96.2684 157.801 98.4945C155.643 101.891 153.299 105.166 150.78 108.305C149.221 110.088 143.758 114.44 143.758 114.44C143.758 114.44 145.426 118.006 146.656 118.564C147.372 118.893 148.117 119.153 148.882 119.341L153.364 115.999C153.364 115.999 161.83 109.525 166.312 105.855C170.794 102.185 177.014 97.2694 177.462 95.1529C177.911 93.0364 177.572 91.9209 175.346 90.2476C173.961 89.2221 172.416 88.4314 170.774 87.907" stroke="#263238" stroke-width="0.75" stroke-miterlimit="10"/>
<path d="M147.229 111.652C147.229 111.652 148.225 116.557 151.686 116.557" stroke="#263238" stroke-width="0.75" stroke-miterlimit="10"/>
<path d="M98.654 75.5317C98.654 75.5317 99.1121 79.4509 99.3462 81.2188C99.413 82.1098 99.6748 82.9751 100.113 83.7537C100.113 83.7537 96.5026 91.8213 96.3482 92.0553C96.1939 92.2894 92.429 99.356 91.8115 100.198C91.1939 101.039 89.7398 103.733 90.6611 105.427C91.5824 107.12 93.0415 110.576 94.9638 110.651C96.8861 110.725 99.5753 109.575 101.438 108.499C103.3 107.424 103.898 106.731 104.052 103.659C104.207 100.586 104.127 95.0533 104.67 92.13C105.213 89.2068 105.591 86.154 105.975 84.9837C106.358 83.8134 108.589 84.2168 109.356 83.7537C110.123 83.2905 110.815 82.2945 112.2 81.677C113.4 81.2205 114.706 81.1151 115.964 81.3732C116.428 81.5276 117.269 80.8354 117.04 79.9888C116.811 79.1422 115.272 78.684 113.733 78.8334C112.195 78.9828 110.815 79.4509 110.432 79.2219C110.048 78.9928 109.665 74.9142 109.665 74.9142C109.665 74.9142 104.187 75.3773 102.284 75.452C100.382 75.5267 98.654 75.5317 98.654 75.5317Z" fill="white" stroke="#263238" stroke-width="0.75" stroke-miterlimit="10"/>
<path d="M107.105 72.5337C107.105 72.5337 107.185 77.6083 107.185 78.0665C107.186 78.1733 107.209 78.2789 107.253 78.3764C107.296 78.474 107.36 78.5615 107.439 78.6335C107.518 78.7054 107.611 78.7603 107.712 78.7947C107.813 78.8292 107.92 78.8423 108.027 78.8334C108.415 78.7587 109.411 79.1422 109.645 77.9918C109.879 76.8414 110.333 73.6094 110.103 72.8425C109.874 72.0755 107.798 71.7668 107.105 72.5337Z" fill="white" stroke="#263238" stroke-width="0.75" stroke-miterlimit="10"/>
<path d="M107.105 72.5337C107.105 72.5337 104.65 71.9212 103.958 72.3046C103.266 72.6881 104.341 78.1462 104.416 78.6043C104.491 79.0625 105.571 79.2965 106.029 79.1422C106.488 78.9878 107.185 78.684 107.185 78.0665C107.185 77.449 107.105 72.5337 107.105 72.5337Z" fill="white" stroke="#263238" stroke-width="0.75" stroke-miterlimit="10"/>
<path d="M103.42 72.459C103.42 72.459 101.806 72.1502 101.343 72.6881C100.88 73.2259 100.731 73.9928 100.88 75.3773C101.083 76.7398 101.498 78.0622 102.11 79.2965C102.419 79.7597 103.42 79.8344 104.032 79.6053C104.645 79.3762 104.416 78.6093 104.416 78.6093C104.416 78.6093 104.107 78.3005 104.032 75.9201C103.958 73.5397 103.958 72.3096 103.958 72.3096L103.42 72.459Z" fill="white" stroke="#263238" stroke-width="0.75" stroke-miterlimit="10"/>
<path d="M100.73 73.3803C100.422 73.455 98.4993 73.5347 98.4246 74.3016C98.3499 75.0685 99.0371 78.684 99.3459 79.0675C99.6546 79.4509 100.496 79.2965 100.805 79.1422C101.114 78.9878 101.652 78.7587 101.572 78.2956C101.492 77.8324 100.73 73.3803 100.73 73.3803Z" fill="white" stroke="#263238" stroke-width="0.75" stroke-miterlimit="10"/>
<path d="M101.343 88.5942C100.791 88.5063 100.271 88.2764 99.8347 87.9273C99.3982 87.5781 99.0599 87.1215 98.8529 86.6022C97.7971 88.9528 96.4525 91.9258 96.3629 92.0802C96.2085 92.3093 92.4436 99.3809 91.8261 100.223C91.2086 101.064 89.7544 103.758 90.6757 105.452C91.597 107.145 93.0562 110.601 94.9784 110.676C96.9007 110.75 99.5899 109.6 101.452 108.524C103.315 107.448 103.913 106.756 104.067 103.684C104.221 100.611 104.142 95.0782 104.684 92.1549C104.943 90.7207 105.182 89.2565 105.382 87.9916C104.085 88.443 102.715 88.6474 101.343 88.5942Z" fill="#407BFF" stroke="#263238" stroke-width="0.75" stroke-miterlimit="10"/>
<path d="M104.879 80.1432C104.879 80.1432 103.569 81.2935 103.42 82.2945C103.342 82.9342 103.477 83.5816 103.803 84.1371" fill="white"/>
<path d="M104.879 80.1432C104.879 80.1432 103.569 81.2935 103.42 82.2945C103.342 82.9342 103.477 83.5816 103.803 84.1371" stroke="#263238" stroke-width="0.75" stroke-miterlimit="10"/>
</svg>
